<?xml version="1.0" encoding="UTF-8" standalone="no"?>
<svg width="175px" height="174px" viewBox="0 0 175 174" version="1.1" xmlns="http://www.w3.org/2000/svg" xmlns:xlink="http://www.w3.org/1999/xlink">
    <!-- Generator: Sketch 3.7.2 (28276) - http://www.bohemiancoding.com/sketch -->
    <title>PCCS-logo_horizontal_RGB_white</title>
    <desc>Created with Sketch.</desc>
    <defs></defs>
    <g id="Symbols" stroke="none" stroke-width="1" fill="none" fill-rule="evenodd">
        <g id="Footer" transform="translate(-553.000000, -547.000000)" fill="#3A5668">
            <g id="Group-4">
                <g id="PCCS-logo_horizontal_RGB_white" transform="translate(553.000000, 547.000000)">
                    <path d="M81.6112392,62.038516 L64.3414244,62.038516 L57.9664125,51.8635686 L83.2668944,51.8635686 L83.2314161,29.9854792 L82.2816317,29.9854792 L82.2254577,27.0307729 L92.2495634,27.035194 L92.2495634,29.9854792 L91.2857355,29.9854792 L91.2857355,51.8635686 L117.275827,51.8635686 L110.900076,62.038516 L92.9509995,62.038516 L92.9509995,108.122355 C100.615057,108.201933 108.276898,108.439194 115.931347,108.840769 C118.070394,105.666486 120.105224,102.329362 122.008488,98.8515035 C127.148411,89.456127 131.180375,79.3975995 133.992772,68.9551813 C136.848038,58.3543436 138.372867,47.5899286 138.532519,36.9286705 L87.6262939,13.6189117 L36.0873717,36.9367757 C36.2662416,47.4639299 37.9485056,58.2040293 41.0949897,68.889603 C44.1232127,79.1750755 48.4441773,89.2372872 53.9388832,98.7977146 C55.9145826,102.235784 58.0284995,105.56775 60.2414602,108.75898 C67.3600387,108.40751 74.4852694,108.195302 81.6112392,108.121618 L81.6112392,62.038516" id="Fill-35"></path>
                    <path d="M33.139714,35.0607951 L87.6336852,10.4063134 L141.47796,35.0607951 C141.47796,62.9890325 132.280942,89.2056033 119.323962,109.029398 C121.956749,109.184133 124.588058,109.358026 127.217889,109.55034 C140.605045,87.2964652 149.847888,58.9342323 149.847888,28.8522278 L87.683207,0.388311772 L24.7697853,28.8522278 C24.7697853,58.8789697 35.1331525,87.1918347 49.036961,109.427289 C51.6268789,109.246028 54.218275,109.083924 56.8111494,108.939504 C43.457255,89.1260252 33.139714,62.9462961 33.139714,35.0607951" id="Fill-36"></path>
                    <path d="M87.6514244,140.088445 C86.6661617,139.507083 85.6690728,138.872668 84.6638536,138.196254 C80.6001069,138.217622 76.535621,138.287622 72.4689178,138.406989 C77.6251013,143.250202 82.7835022,147.204793 87.7046418,150.106447 C93.1609129,147.215845 98.6312274,143.280412 103.94115,138.461515 C99.6031858,138.318569 95.2681777,138.232359 90.9346479,138.200675 C89.8407328,138.875616 88.7453394,139.508557 87.6514244,140.088445" id="Fill-37"></path>
                    <path d="M128.336196,121.152536 C128.015413,121.124536 127.85576,121.111273 127.535716,121.08401 C127.457368,122.007264 127.417455,122.469259 127.339107,123.39325 C127.750064,123.427144 127.954804,123.444828 128.365022,123.480196 C129.121154,123.545774 129.630416,123.177357 129.698416,122.421365 C129.76272,121.705162 129.529894,121.254956 128.336196,121.152536" id="Fill-38"></path>
                    <path d="M118.469525,120.38107 C117.016392,120.286755 115.777607,121.387586 115.684477,122.943044 C115.58765,124.56408 116.669739,125.855014 118.105872,125.947855 C119.542006,126.041433 120.782269,124.90155 120.897573,123.281251 C121.007704,121.727267 119.923398,120.475385 118.469525,120.38107" id="Fill-39"></path>
                    <path d="M86.1790738,119.38708 C84.7229841,119.391502 83.5632863,120.574858 83.5773298,122.131789 C83.5921124,123.756509 84.7592016,124.970075 86.1975521,124.965654 C87.6359026,124.960497 88.7948613,123.739562 88.7985569,122.114842 C88.8022526,120.557174 87.6344243,119.381923 86.1790738,119.38708" id="Fill-40"></path>
                    <path d="M66.9771684,119.866023 C66.5854285,119.88297 66.3895586,119.891812 65.9985579,119.910233 C66.1005581,122.117789 66.1515582,123.221567 66.2535584,125.42986 C66.6401243,125.411439 66.8337768,125.403334 67.2203428,125.386387 C68.8464328,125.314914 69.8036085,124.320924 69.7333909,122.497996 C69.6639125,120.68833 68.5810844,119.795287 66.9771684,119.866023" id="Fill-41"></path>
                    <path d="M143.591877,130.290757 C143.454398,129.469187 143.38492,129.05877 143.244485,128.237199 C142.051526,128.09499 141.455046,128.025728 140.262088,127.890887 C139.941304,128.658669 139.781652,129.04256 139.463086,129.811078 C138.503693,129.704237 138.023997,129.651922 137.063864,129.549502 C138.483737,126.505638 139.922087,123.470617 141.383351,120.446648 C142.383396,120.560121 142.883788,120.618331 143.883834,120.736961 C144.605965,124.015875 145.30888,127.298472 145.988142,130.586228 C145.030227,130.465387 144.55053,130.40644 143.591877,130.290757 L143.591877,130.290757 Z M135.998036,129.437503 C135.065252,129.340241 134.598121,129.293083 133.664597,129.200242 C133.979467,126.04217 134.293598,122.884834 134.609208,119.726761 C135.561949,119.821076 136.037949,119.869707 136.99069,119.968443 C136.659559,123.125042 136.329167,126.280904 135.998036,129.437503 L135.998036,129.437503 Z M129.689546,128.82372 C129.127806,127.484891 128.843979,126.815109 128.272631,125.477017 C127.832108,125.438702 127.611847,125.420281 127.170585,125.382703 C127.061933,126.661847 127.007976,127.30142 126.899324,128.580564 C125.965061,128.501723 125.497191,128.463408 124.562928,128.389724 C124.814972,125.225757 125.067016,122.062526 125.319799,118.899296 C126.677584,119.006874 127.356107,119.062873 128.713153,119.18003 C129.707285,119.26624 130.178112,119.376028 130.586113,119.572763 C131.651202,120.084126 132.251377,121.117905 132.120551,122.496522 C132.024464,123.503775 131.434636,124.557448 130.43533,124.947233 C130.434591,124.958286 130.433852,124.963444 130.433113,124.97376 C130.433113,124.97376 130.551374,125.158705 130.743548,125.577227 C131.368115,126.972055 131.677811,127.669837 132.29129,129.066138 C131.250593,128.966666 130.730244,128.918035 129.689546,128.82372 L129.689546,128.82372 Z M123.340404,123.460302 C123.127534,126.248483 120.852486,128.261515 117.966916,128.074359 C115.080606,127.886466 113.087167,125.595648 113.239429,122.803782 C113.387994,120.078231 115.662303,118.063726 118.609221,118.255303 C121.556879,118.44688 123.5481,120.738435 123.340404,123.460302 L123.340404,123.460302 Z M112.416775,127.586575 C109.918509,127.453944 108.669377,127.396471 106.170372,127.297735 C106.296024,124.1264 106.422416,120.955801 106.548807,117.785202 C107.504505,117.822781 107.982723,117.842675 108.938421,117.885412 C108.80242,120.892433 108.735159,122.394839 108.600637,125.401124 C110.169814,125.471123 110.954033,125.509438 112.522471,125.591964 C112.48034,126.389955 112.458905,126.788583 112.416775,127.586575 L112.416775,127.586575 Z M104.406064,127.23142 C103.624802,127.203421 103.233801,127.190158 102.452539,127.165105 C102.455495,127.059001 102.457713,127.005949 102.460669,126.899108 C102.467322,126.699426 102.486539,126.500481 102.486539,126.500481 C102.476191,126.500481 102.470278,126.499744 102.45993,126.499744 C102.45993,126.499744 101.510885,127.294051 99.9195342,127.252052 C97.4707905,127.187947 95.2519168,125.329651 95.3021778,122.214314 C95.3465257,119.44529 97.5269645,117.344575 100.505666,117.42489 C103.00541,117.491942 104.217586,118.804244 104.217586,118.804244 C103.735672,119.485816 103.495454,119.826971 103.016496,120.509279 C103.016496,120.509279 102.051929,119.598552 100.678623,119.560973 C98.6386188,119.504974 97.7812259,120.769382 97.7516606,122.179683 C97.7124866,123.990085 98.9527498,125.0946 100.445057,125.135126 C101.573711,125.166073 102.414843,124.499975 102.414843,124.499975 C102.424452,124.207452 102.428887,124.060822 102.437756,123.768298 C101.893755,123.751351 101.621016,123.743246 101.077015,123.727772 C101.099189,122.934202 101.111015,122.537785 101.133189,121.744951 C102.5198,121.784003 103.212366,121.806108 104.598239,121.855476 C104.521369,124.006296 104.482195,125.081337 104.406064,127.23142 L104.406064,127.23142 Z M86.2049434,127.095843 C83.3141989,127.105422 81.1684992,124.956076 81.1293252,122.160525 C81.0908904,119.431291 83.2203291,117.265734 86.1724216,117.256155 C89.1237749,117.246576 91.2672572,119.397396 91.2465615,122.126631 C91.2258658,124.922918 89.0956879,127.086264 86.2049434,127.095843 L86.2049434,127.095843 Z M73.984138,127.136369 C73.8895291,123.964296 73.7956594,120.792961 73.7017896,117.620888 C76.1490551,117.548678 77.3730574,117.519942 79.8210619,117.479416 C79.8343663,118.278145 79.8410185,118.677509 79.8543229,119.476237 C78.3686679,119.50129 77.6258404,119.516763 76.1409246,119.552868 C76.1579247,120.244756 76.1667942,120.591068 76.1837943,121.283692 C77.3649269,121.254219 77.9562324,121.241693 79.1381041,121.220325 C79.1521476,122.019053 79.159539,122.418418 79.1743216,123.217146 C77.9976237,123.238514 77.4092748,123.251041 76.232577,123.279777 C76.2503161,123.998928 76.2591857,124.357766 76.2769249,125.076916 C77.8202321,125.038601 78.5918857,125.023127 80.1344538,124.998075 L80.1677147,126.994897 C77.6938406,127.035422 76.457273,127.063422 73.984138,127.136369 L73.984138,127.136369 Z M67.4021692,127.377314 C66.0436449,127.436997 65.3636437,127.468681 64.0051194,127.537944 L63.5172924,118.030568 C64.9039037,117.959832 65.5972093,117.926675 66.9845597,117.866254 C70.0563915,117.73215 72.0808736,119.416554 72.1806564,122.411049 C72.2797,125.404808 70.4126531,127.24542 67.4021692,127.377314 L67.4021692,127.377314 Z M56.3588008,127.991097 C56.1437134,124.824919 55.9293652,121.658741 55.7142778,118.492563 C56.6692361,118.427722 57.1467153,118.396775 58.1009345,118.337828 C58.3005,121.504743 58.4985874,124.671657 58.698153,127.839309 C57.7624121,127.897519 57.2945416,127.927729 56.3588008,127.991097 L56.3588008,127.991097 Z M48.8396128,128.559196 C48.5727863,125.397439 48.3066988,122.234946 48.0406113,119.072452 C48.9940914,118.992874 49.4715705,118.953822 50.4250506,118.878665 C50.663051,121.879055 50.7813121,123.378513 51.0185734,126.378903 C52.5855329,126.255115 53.3690126,126.196905 54.935972,126.087116 C54.9921461,126.883635 55.0209722,127.282262 55.0771462,128.079517 C52.5810981,128.254883 51.3334436,128.350672 48.8396128,128.559196 L48.8396128,128.559196 Z M42.2768615,129.316662 C39.3972039,129.59887 37.0541561,127.660995 36.7503729,124.881655 C36.4532419,122.167894 38.3705498,119.812234 41.3115553,119.524132 C44.2525608,119.235293 46.5926521,121.173904 46.8306526,123.89356 C47.0745661,126.678795 45.1572581,129.033718 42.2768615,129.316662 L42.2768615,129.316662 Z M32.9918876,130.320967 C30.7552748,130.585491 29.3479678,129.396977 29.3479678,129.396977 C29.7500555,128.63288 29.9518385,128.250462 30.3576218,127.487102 C30.3576218,127.487102 31.5616676,128.330777 32.7649742,128.188568 C33.2468881,128.131832 33.7465412,127.885729 33.6800193,127.31763 C33.549193,126.193221 29.2319241,126.754688 28.8645756,123.848613 C28.6443143,122.104526 30.0072734,120.764961 31.9378857,120.536542 C34.031107,120.289703 35.1856308,121.249798 35.1856308,121.249798 C34.8685433,122.051474 34.7111082,122.452312 34.3977163,123.253988 C34.3977163,123.253988 33.3274535,122.531153 32.1633209,122.668941 C31.676233,122.726414 31.1610581,123.002727 31.2253626,123.531774 C31.3687542,124.721025 35.685284,124.007033 36.0193715,126.997844 C36.1952849,128.573196 35.1346308,130.066759 32.9918876,130.320967 L32.9918876,130.320967 Z M174.730022,131.325273 C169.083794,128.412566 163.148565,126.115116 157.029293,124.46166 C157.191902,123.321777 157.354511,122.181157 157.51712,121.040537 C158.01899,117.529521 155.519986,114.297765 151.987675,113.875559 C108.741072,108.701507 65.7716444,108.701507 22.5257811,113.875559 C18.9934702,114.297765 16.4944655,117.529521 16.996336,121.040537 C17.1619016,122.200315 17.3274671,123.360092 17.4930326,124.519869 C11.4469344,126.168168 5.58192345,128.445724 0,131.325273 C5.28922726,133.378094 10.2014973,135.889962 14.6784187,138.775406 C12.6480236,142.533999 11.0204553,146.358907 9.78832261,150.182341 C16.132291,146.909322 25.2797863,144.652398 32.3281473,143.494831 C32.1012338,142.120635 31.7819288,140.747175 31.4101455,139.372979 L31.3983194,139.320664 C68.8116936,135.258495 105.912415,135.2666 143.326528,139.343506 L143.319876,139.372979 C142.948093,140.747175 142.629527,142.120635 142.401874,143.494831 C149.450235,144.652398 158.597731,146.909322 164.942438,150.182341 C163.709566,146.358907 162.082737,142.533999 160.051603,138.775406 C164.528524,135.889962 169.440794,133.378094 174.730022,131.325273 L174.730022,131.325273 Z" id="Fill-42"></path>
                    <path d="M142.394483,122.747046 C142.384135,122.746309 142.378222,122.745572 142.367874,122.744098 C142.367874,122.744098 142.03083,123.750614 141.786178,124.325345 C141.480177,125.035654 141.327177,125.390808 141.022654,126.101116 C141.780264,126.187326 142.1587,126.231536 142.91631,126.320693 C142.789179,125.56028 142.724875,125.180073 142.595527,124.41966 C142.49057,123.803666 142.394483,122.747046 142.394483,122.747046" id="Fill-43"></path>
                    <path d="M41.5207296,121.644005 C40.070553,121.786214 39.0268989,123.072727 39.1880296,124.622289 C39.3565517,126.238168 40.6345106,127.336788 42.0676872,127.196052 C43.5008637,127.055317 44.5400831,125.730489 44.3900393,124.1124 C44.2459086,122.561363 42.9709062,121.501795 41.5207296,121.644005" id="Fill-44"></path>
                    <path d="M19.5966018,88.8703436 L18.0858163,92.1020997 C17.7458157,92.8286185 17.1168145,93.7798718 16.4501176,94.7863877 C13.9939826,98.4956124 10.2835409,104.102186 14.310331,109.546656 L14.8535929,110.282754 L15.611203,110.374858 C16.2697695,110.455173 16.8899011,110.416121 17.4679021,110.261385 C17.7206852,110.193597 17.9653379,110.103703 18.2003818,109.991704 C19.1146878,109.556972 19.8937328,108.791401 20.5094296,107.708991 C22.7652599,103.746295 22.3417373,96.3713186 21.0460393,92.8278816 L19.5966018,88.8703436" id="Fill-45"></path>
                    <path d="M0.771653613,76.1091072 L0.790131909,80.0924344 C0.804914545,83.3381903 2.89296192,90.0161212 6.25970733,93.5182955 C7.98040619,95.3080665 9.84967055,96.0920584 11.6657174,95.7847984 L12.3826753,95.6632207 L12.6517193,94.9123864 C14.4899401,89.7795974 9.2539303,84.8428063 5.79109776,81.5764191 C4.86792212,80.7062176 3.99648572,79.885384 3.46061515,79.2583378 L0.771653613,76.1091072" id="Fill-46"></path>
                    <path d="M18.9646441,64.7198567 L16.7679443,67.286988 C16.3340739,67.7924564 15.5949421,68.4165553 14.8107233,69.0767589 C11.8615873,71.5628385 7.40388338,75.3206943 10.1556711,80.967057 L10.5614545,81.7989431 L11.3153689,82.0951506 C12.3612404,82.5063042 13.3671988,82.582935 14.3007223,82.3331481 C14.5490706,82.2660962 14.792245,82.1762024 15.0302454,82.0634667 C15.5143768,81.8328375 15.9748559,81.5064198 16.407248,81.0849505 C19.216688,78.3365579 20.1834724,72.0660964 19.6387323,68.7790778 L18.9646441,64.7198567" id="Fill-47"></path>
                    <path d="M3.11765799,52.0426194 L2.34822177,55.739318 C1.83822082,58.19224 2.49900466,63.6956567 4.73340013,67.0843585 C5.9152719,68.8770768 7.39870945,69.9160134 9.02110378,70.09138 L9.77797476,70.1724318 L10.2014973,69.5475962 C12.6369366,65.9518439 9.07506041,61.0607366 6.71796905,57.8252964 C6.12075055,57.0059365 5.55827124,56.2322603 5.23896629,55.6855291 L3.11765799,52.0426194" id="Fill-48"></path>
                    <path d="M19.1538618,44.3603831 L16.4892916,46.297521 C16.036943,46.6261491 15.2867242,46.9967769 14.4936357,47.3895097 C11.4321518,48.9044414 6.807404,51.1923124 8.52736373,56.61173 L8.80453816,57.4878262 L9.52445255,57.9343479 C10.7691505,58.7072873 12.0330659,58.9334955 13.2415464,58.6100251 C13.5017208,58.5407627 13.7589387,58.4449742 14.0132001,58.3241334 C14.1499394,58.2585551 14.2866788,58.1863453 14.4219399,58.1060304 C17.3910324,56.3449959 19.1922967,51.2350488 19.1767749,48.3473945 L19.1538618,44.3603831" id="Fill-49"></path>
                    <g id="Group-53" transform="translate(7.391318, 29.473379)">
                        <path d="M5.79331515,0.630730316 L4.25074706,1.7352452 C2.42361322,3.04386324 -0.0842610267,7.73381472 0.30156578,11.8202987 C0.536609697,14.3071151 1.72513365,15.7616264 2.68009196,16.5434078 L3.18713638,16.9575088 L3.74444177,16.9604561 C3.98392047,16.9619298 4.24779053,16.9361406 4.5234867,16.8624571 C4.68018264,16.8204575 4.84057425,16.7622476 5.00244411,16.6856168 C5.63440181,16.3849884 6.28114215,15.7903629 6.79040397,14.6777429 C8.20584139,11.5815644 7.91905825,5.6905727 6.73718648,2.87733865 L5.79331515,0.630730316" id="Fill-50"></path>
                        <path d="M63.6569883,134.57766 C62.5275949,135.288705 61.4588103,136.080066 60.4750258,136.807321 C59.6612417,137.409315 58.8807185,137.986256 58.2007173,138.414357 C57.952369,138.570566 57.717325,138.706881 57.4992812,138.817406 L55.0217113,140.067077 L57.9449776,141.675587 C61.154288,143.441779 67.5743869,144.535978 71.8546992,142.828733 C72.3262653,142.64084 72.7734401,142.417579 73.1851365,142.158213 L73.1917887,142.154529 C75.2022272,140.889384 76.1808377,138.859405 76.0234027,136.283432 L75.9790548,135.55765 L75.4454016,134.996919 C71.4962203,130.85812 67.2713429,132.303052 63.6569883,134.57766" id="Fill-52"></path>
                    </g>
                    <path d="M55.7312779,145.011236 L58.1615433,147.583526 C58.9272838,148.395517 59.9088509,149.673925 60.9480702,151.028964 C64.5225117,155.690915 69.8782608,162.676843 74.8784875,160.682232 C75.0085747,160.630654 75.1379228,160.572444 75.2665317,160.509076 L75.8112718,160.239395 L75.8726198,159.542349 C76.0832723,157.142479 75.1867055,154.678505 73.2804845,152.414212 C69.3608685,147.763313 62.1306811,144.95229 58.6730225,144.983974 L55.7312779,145.011236" id="Fill-54"></path>
                    <g id="Group-58" transform="translate(39.913118, 148.103731)">
                        <path d="M0.326696262,0.403785296 L2.58843961,3.15733575 C5.1207052,6.23877755 11.6021521,10.5632591 16.4042915,10.6059955 C17.2668583,10.6141007 18.0399902,10.4807337 18.7148175,10.2117891 C18.9801658,10.1056849 19.2307315,9.97894938 19.4650363,9.83084565 C20.259603,9.33127187 20.8730824,8.59443739 21.2840397,7.63286839 L21.538301,7.0367693 L21.2345179,6.32277668 C18.5019476,-0.0935779791 11.4380648,0.324207172 6.76527349,0.600520102 C5.45035799,0.678624557 4.20861655,0.752308005 3.31944097,0.672729881 L0.326696262,0.403785296" id="Fill-55"></path>
                        <path d="M53.2189688,16.3665675 L52.6853157,16.9272985 L52.6409678,17.6530805 C52.4835327,20.2290538 53.4621432,22.2590328 55.4725817,23.5241776 L55.4792339,23.5278618 C55.8909303,23.7872276 56.3381051,24.0104884 56.8096712,24.1983812 C61.0899835,25.9056267 67.5100824,24.8114275 70.7201319,23.0452352 L73.6426591,21.4367256 L71.1650893,20.1870543 C70.9470454,20.0765291 70.7120015,19.9402147 70.4636532,19.7840058 C69.7836519,19.355905 69.0031287,18.7789636 68.1893446,18.1769698 C67.2055601,17.4497142 66.1367755,16.658354 65.0073821,15.9473087 C61.3930276,13.6727006 57.1681501,12.2277682 53.2189688,16.3665675" id="Fill-57"></path>
                    </g>
                    <path d="M117.295784,144.983974 C113.838125,144.95229 106.607938,147.763313 102.688322,152.414212 C100.782101,154.678505 99.8855341,157.142479 100.096187,159.542349 L100.157535,160.239395 L100.702275,160.509076 C100.830884,160.572444 100.960232,160.630654 101.090319,160.682232 C106.090546,162.676843 111.446295,155.690915 115.020736,151.028964 C116.059956,149.673925 117.041523,148.395517 117.807263,147.583526 L120.237529,145.011236 L117.295784,144.983974" id="Fill-59"></path>
                    <path d="M132.736248,148.776461 C131.847072,148.856039 130.605331,148.782355 129.290415,148.704251 C124.617624,148.427938 117.553741,148.010153 114.821171,154.426507 L114.517388,155.1405 L114.771649,155.736599 C115.182606,156.698168 115.796086,157.435003 116.590652,157.934576 C116.824957,158.08268 117.075523,158.209416 117.340871,158.31552 C118.015698,158.584464 118.78883,158.717831 119.651397,158.709726 C124.453536,158.66699 130.934983,154.342508 133.467249,151.261066 L135.728992,148.507516 L132.736248,148.776461" id="Fill-60"></path>
                    <path d="M153.372069,92.8278816 C152.076371,96.3713186 151.652848,103.746295 153.908678,107.708991 C154.524375,108.791401 155.30342,109.556972 156.217726,109.991704 C156.45277,110.103703 156.697423,110.193597 156.950206,110.261385 C157.528207,110.416121 158.148338,110.455173 158.806905,110.374858 L159.564515,110.282754 L160.107777,109.546656 C164.134567,104.102186 160.424125,98.4956124 157.96799,94.7863877 C157.301293,93.7798718 156.672292,92.8286185 156.332292,92.1020997 L154.821506,88.8703436 L153.372069,92.8278816" id="Fill-61"></path>
                    <path d="M173.646454,76.1091072 L173.627976,80.0924344 C173.613193,83.3381903 171.525146,90.0161212 168.158401,93.5182955 C166.437702,95.3080665 164.568437,96.0920584 162.752391,95.7847984 L162.035433,95.6632207 L161.766389,94.9123864 C159.928168,89.7795974 165.164178,84.8428063 168.627749,81.5764191 C169.550925,80.7062176 170.421622,79.885384 170.957493,79.2583378 L173.646454,76.1091072" id="Fill-62"></path>
                    <path d="M155.453464,64.7198567 L157.650164,67.286988 C158.084034,67.7924564 158.823166,68.4165553 159.607385,69.0767589 C162.556521,71.5628385 167.014225,75.3206943 164.262437,80.967057 L163.856653,81.7989431 L163.102739,82.0951506 C162.056867,82.5063042 161.050909,82.582935 160.117386,82.3331481 C159.869037,82.2660962 159.625863,82.1762024 159.387863,82.0634667 C158.903731,81.8328375 158.443252,81.5064198 158.011599,81.0849505 C155.20142,78.3365579 154.234636,72.0660964 154.779376,68.7790778 L155.453464,64.7198567" id="Fill-63"></path>
                    <path d="M171.30045,52.0426194 L172.069886,55.739318 C172.579887,58.19224 171.919103,63.6956567 169.684708,67.0843585 C168.502836,68.8770768 167.019398,69.9160134 165.397004,70.09138 L164.640133,70.1724318 L164.216611,69.5475962 C161.781171,65.9518439 165.343048,61.0607366 167.700139,57.8252964 C168.297357,57.0059365 168.859837,56.2322603 169.179142,55.6855291 L171.30045,52.0426194" id="Fill-64"></path>
                    <path d="M155.264246,44.3603831 L157.928816,46.297521 C158.381165,46.6261491 159.131384,46.9967769 159.924472,47.3895097 C162.985956,48.9044414 167.610704,51.1923124 165.890744,56.61173 L165.61357,57.4878262 L164.893655,57.9343479 C163.648957,58.7072873 162.385042,58.9334955 161.176561,58.6100251 C160.916387,58.5407627 160.659169,58.4449742 160.404908,58.3241334 C160.268169,58.2585551 160.131429,58.1863453 159.996168,58.1060304 C157.027075,56.3449959 155.225811,51.2350488 155.241333,48.3473945 L155.264246,44.3603831" id="Fill-65"></path>
                    <path d="M161.233475,30.1041096 L162.776043,31.2086245 C164.603177,32.5172425 167.111051,37.207194 166.725224,41.293678 C166.49018,43.7804944 165.302395,45.2350056 164.347437,46.016787 L163.839653,46.430888 L163.282348,46.4338353 C163.042869,46.435309 162.77826,46.4095198 162.503303,46.3358364 C162.346607,46.2938368 162.186216,46.2356269 162.024346,46.1589961 C161.392388,45.8583676 160.745648,45.2637422 160.236386,44.1511221 C158.820948,41.0549436 159.107732,35.1639519 160.289603,32.3507179 L161.233475,30.1041096" id="Fill-66"></path>
                </g>
            </g>
        </g>
    </g>
</svg>