<?xml version="1.0" encoding="UTF-8" standalone="no"?>
<svg width="12px" height="16px" viewBox="0 0 12 16" version="1.1" xmlns="http://www.w3.org/2000/svg" xmlns:xlink="http://www.w3.org/1999/xlink">
    <!-- Generator: Sketch 3.7.2 (28276) - http://www.bohemiancoding.com/sketch -->
    <title>phone</title>
    <desc>Created with Sketch.</desc>
    <defs></defs>
    <g id="Symbols" stroke="none" stroke-width="1" fill="none" fill-rule="evenodd">
        <g id="Header" transform="translate(-930.000000, -17.000000)" fill="#FFFFFF">
            <g id="Group-3">
                <g id="phone" transform="translate(930.000000, 12.000000)">
                    <path d="M2.0085302,5 C0.899249601,5 0,5.89451376 0,6.99406028 L0,19.0059397 C0,20.1072288 0.901950359,21 2.0085302,21 L9.9914698,21 C11.1007504,21 12,20.1054862 12,19.0059397 L12,6.99406028 C12,5.8927712 11.0980496,5 9.9914698,5 L2.0085302,5 Z M2.50043583,7 C2.22405275,7 2,7.22765279 2,7.50964952 L2,16.4903505 C2,16.7718221 2.23079681,17 2.50043583,17 L9.49956417,17 C9.77594725,17 10,16.7723472 10,16.4903505 L10,7.50964952 C10,7.22817786 9.76920319,7 9.49956417,7 L2.50043583,7 Z M6,20 C6.55228478,20 7,19.5522848 7,19 C7,18.4477152 6.55228478,18 6,18 C5.44771522,18 5,18.4477152 5,19 C5,19.5522848 5.44771522,20 6,20 Z"></path>
                </g>
            </g>
        </g>
    </g>
</svg>