<?xml version="1.0" encoding="UTF-8" standalone="no"?>
<svg width="270px" height="60px" viewBox="0 0 270 60" version="1.1" xmlns="http://www.w3.org/2000/svg" xmlns:xlink="http://www.w3.org/1999/xlink">
    <!-- Generator: Sketch 3.7.2 (28276) - http://www.bohemiancoding.com/sketch -->
    <title>PCCS-logo_horizontal_RGB_white</title>
    <desc>Created with Sketch.</desc>
    <defs>
        <polygon id="path-1" points="0.0904520529 49.7719149 26.2665155 49.7719149 26.2665155 0.218553191 0.0904520529 0.218553191"></polygon>
        <polygon id="path-3" points="0.112851064 8.66553191 25.4384681 8.66553191 25.4384681 0.139914894 0.112851064 0.139914894 0.112851064 8.66553191"></polygon>
    </defs>
    <g id="Symbols" stroke="none" stroke-width="1" fill="none" fill-rule="evenodd">
        <g id="Header" transform="translate(-31.000000, -70.000000)">
            <g id="Group-3">
                <g id="PCCS-logo_horizontal_RGB_white" transform="translate(31.000000, 70.000000)">
                    <path d="M80.9262128,24.7996596 L84.359234,24.7996596 C86.6655319,24.7996596 87.9758298,23.7510638 87.9758298,21.6546383 C87.9758298,19.6105532 86.6655319,18.5885106 84.359234,18.5885106 L80.9262128,18.5885106 L80.9262128,24.7996596 L80.9262128,24.7996596 Z M84.5688511,15.1549787 C89.2340426,15.1549787 91.907234,17.4615319 91.907234,21.5236596 C91.907234,25.7954043 89.2340426,28.2589787 84.5688511,28.2589787 L80.9262128,28.2589787 L80.9262128,33.5004255 L76.7854468,33.5004255 L76.7854468,15.1549787 L84.5688511,15.1549787 L84.5688511,15.1549787 Z" id="Fill-1" fill="#FFFFFF"></path>
                    <path d="M104.487319,24.7996596 C106.767574,24.7996596 108.077617,23.7510638 108.077617,21.6546383 C108.077617,19.6105532 106.767574,18.5885106 104.487319,18.5885106 L100.661106,18.5885106 L100.661106,24.7996596 L104.487319,24.7996596 L104.487319,24.7996596 Z M104.880511,28.2589787 L100.661106,28.2589787 L100.661106,33.5004255 L96.5203404,33.5004255 L96.5203404,15.1549787 L104.487319,15.1549787 C109.283234,15.1549787 112.009021,17.4615319 112.009021,21.5236596 C112.009021,24.3541277 110.803404,26.3982128 108.575745,27.4465532 L112.480851,33.5004255 L107.789617,33.5004255 L104.880511,28.2589787 L104.880511,28.2589787 Z" id="Fill-2" fill="#FFFFFF"></path>
                    <path d="M120.396511,24.3278298 C120.396511,27.551234 122.991064,30.0674043 126.056936,30.0674043 C129.123319,30.0674043 131.612936,27.551234 131.612936,24.3278298 C131.612936,21.1041702 129.123319,18.6408511 126.056936,18.6408511 C122.964511,18.6408511 120.396511,21.1041702 120.396511,24.3278298 L120.396511,24.3278298 Z M135.858638,24.3278298 C135.858638,29.6218723 131.612936,33.684 126.004596,33.684 C120.396511,33.684 116.150809,29.6479149 116.150809,24.3278298 C116.150809,18.9814468 120.396511,15.0242553 126.004596,15.0242553 C131.612936,15.0242553 135.858638,19.0077447 135.858638,24.3278298 L135.858638,24.3278298 Z" id="Fill-3" fill="#FFFFFF"></path>
                    <polyline id="Fill-4" fill="#FFFFFF" points="145.478043 33.5004255 138.270894 15.1549787 142.726468 15.1549787 147.731745 28.992766 152.763574 15.1549787 157.035319 15.1549787 149.749787 33.5004255 145.478043 33.5004255"></polyline>
                    <polygon id="Fill-5" fill="#FFFFFF" points="161.019574 33.5001702 165.160596 33.5001702 165.160596 15.1549787 161.019574 15.1549787"></polygon>
                    <path d="M175.329191,30.0148085 L179.076766,30.0148085 C182.142894,30.0148085 184.396851,27.7085106 184.396851,24.3541277 C184.396851,20.9731915 182.038213,18.6408511 178.893447,18.6408511 L175.329191,18.6408511 L175.329191,30.0148085 L175.329191,30.0148085 Z M178.97183,15.1549787 C184.659064,15.1549787 188.616255,18.9028085 188.616255,24.3278298 C188.616255,29.7265532 184.606468,33.5004255 178.814553,33.5004255 L171.18817,33.5004255 L171.18817,15.1549787 L178.97183,15.1549787 L178.97183,15.1549787 Z" id="Fill-6" fill="#FFFFFF"></path>
                    <polyline id="Fill-7" fill="#FFFFFF" points="197.449532 18.5885106 197.449532 22.5717447 206.307574 22.5717447 206.307574 26.0052766 197.449532 26.0052766 197.449532 30.0674043 207.565532 30.0674043 207.565532 33.5004255 193.308511 33.5004255 193.308511 15.1549787 207.277277 15.1549787 207.277277 18.5885106 197.449532 18.5885106"></polyline>
                    <polyline id="Fill-8" fill="#FFFFFF" points="225.623234 33.5004255 216.738894 21.7332766 216.738894 33.5004255 212.781447 33.5004255 212.781447 15.1549787 216.555574 15.1549787 225.465957 26.9486809 225.465957 15.1549787 229.397106 15.1549787 229.397106 33.5004255 225.623234 33.5004255"></polyline>
                    <path d="M251.097957,18.0643404 L248.686723,20.9994894 C247.428766,19.5582128 245.62034,18.6145532 243.917106,18.6145532 C240.772085,18.6145532 238.334809,21.0518298 238.334809,24.2491915 C238.334809,27.4465532 240.772085,29.9098723 243.917106,29.9098723 C245.568,29.9098723 247.37617,29.0714043 248.686723,27.7608511 L251.124,30.408 C249.184596,32.3994894 246.380426,33.684 243.707234,33.684 C238.229872,33.684 234.089106,29.6218723 234.089106,24.3017872 C234.089106,19.0077447 238.308766,15.0242553 243.864766,15.0242553 C246.51166,15.0242553 249.289532,16.2035745 251.097957,18.0643404" id="Fill-9" fill="#FFFFFF"></path>
                    <polyline id="Fill-10" fill="#FFFFFF" points="259.695319 18.5885106 259.695319 22.5717447 268.55234 22.5717447 268.55234 26.0052766 259.695319 26.0052766 259.695319 30.0674043 269.811064 30.0674043 269.811064 33.5004255 255.554043 33.5004255 255.554043 15.1549787 269.522553 15.1549787 269.522553 18.5885106 259.695319 18.5885106"></polyline>
                    <path d="M83.1794043,46.8217021 C83.0668085,47.3157447 82.7984681,48.2331064 82.6008511,48.6002553 C82.3184681,48.6850213 81.2739574,48.8966809 80.5682553,48.8966809 C77.9994894,48.8966809 76.7854468,47.2593191 76.7854468,45.5091064 C76.7854468,43.3917447 78.5356596,41.9803404 80.7942128,41.9803404 C81.6834894,41.9803404 82.4175319,42.1779574 82.7984681,42.2627234 C82.8689362,42.827234 82.9113191,43.3493617 82.9817872,44.0129362 L82.5868085,44.0834043 C82.3044255,42.869617 81.5846809,42.432 80.5542128,42.432 C79.128766,42.432 78.1123404,43.6457872 78.1123404,45.3395745 C78.1123404,47.1748085 79.2556596,48.4309787 80.6106383,48.4309787 C81.6268085,48.4309787 82.2620426,47.8662128 82.7841702,46.7371915 L83.1794043,46.8217021" id="Fill-11" fill="#FFFFFF"></path>
                    <path d="M89.8554894,46.8781277 C89.7850213,47.3017021 89.5731064,48.4026383 89.4742979,48.7131064 L84.1953191,48.7131064 L84.1953191,48.3321702 C85.1836596,48.2614468 85.2541277,48.1907234 85.2541277,47.1748085 L85.2541277,43.6741277 C85.2541277,42.6579574 85.1693617,42.6155745 84.252,42.5451064 L84.252,42.1639149 L87.456,42.1639149 L87.456,42.5451064 C86.4962553,42.6155745 86.3971915,42.6579574 86.3971915,43.6741277 L86.3971915,47.3157447 C86.3971915,47.8097872 86.4679149,48.0638298 86.6655319,48.1626383 C86.8631489,48.2474043 87.216,48.2754894 87.6957447,48.2754894 C88.331234,48.2614468 88.7121702,48.1766809 88.9381277,47.9085957 C89.1357447,47.6828936 89.2769362,47.3721702 89.4605106,46.8357447 L89.8554894,46.8781277" id="Fill-12" fill="#FFFFFF"></path>
                    <path d="M94.0473191,43.547234 L94.019234,43.547234 L93.0875745,46.0171915 L94.9789787,46.0171915 L94.0473191,43.547234 L94.0473191,43.547234 Z M95.0213617,48.7131064 L95.0213617,48.3321702 L95.2754043,48.3035745 C95.6987234,48.2474043 95.783234,48.1342979 95.5999149,47.6262128 L95.1906383,46.5676596 L92.8899574,46.5676596 C92.7771064,46.8500426 92.664,47.1885957 92.5511489,47.5697872 C92.3818723,48.1202553 92.5230638,48.2331064 92.9323404,48.2897872 L93.2708936,48.3321702 L93.2708936,48.7131064 L90.7161702,48.7131064 L90.7161702,48.3321702 C91.3654468,48.2614468 91.6337872,48.1626383 92.0571064,47.1324255 L94.1318298,42.0651064 L94.5694468,41.9662979 L96.743234,47.3721702 C97.0677447,48.2050213 97.3360851,48.2897872 97.9710638,48.3321702 L97.9710638,48.7131064 L95.0213617,48.7131064 L95.0213617,48.7131064 Z" id="Fill-13" fill="#FFFFFF"></path>
                    <path d="M102.629106,43.9565106 C102.360766,43.0953191 101.951234,42.432 101.118638,42.432 C100.441021,42.432 100.060085,42.9260426 100.060085,43.4765106 C100.060085,44.2105532 100.610298,44.4786383 101.301957,44.7750638 L101.556255,44.8738723 C102.48766,45.2550638 103.348851,45.7348085 103.348851,46.8781277 C103.362894,48.0495319 102.318383,48.8966809 100.921021,48.8966809 C100.017702,48.8966809 99.3403404,48.5578723 99.0862979,48.4026383 C99.0015319,48.1766809 98.8603404,47.3440851 98.7474894,46.6381277 L99.156766,46.5676596 C99.4108085,47.3578723 100.031745,48.444766 101.104596,48.444766 C101.796255,48.444766 102.261957,47.9650213 102.261957,47.3157447 C102.261957,46.5393191 101.669106,46.2291064 101.118638,45.9888511 L100.80817,45.8476596 C100.031745,45.5231489 99.029617,45.0150638 99.029617,43.9422128 C99.029617,42.7991489 99.9188936,41.9803404 101.358638,41.9803404 C102.007915,41.9803404 102.530043,42.1779574 102.784085,42.2486809 C102.868851,42.672 102.939319,43.194383 103.038128,43.8998298 L102.629106,43.9565106" id="Fill-14" fill="#FFFFFF"></path>
                    <path d="M108.387319,43.9565106 C108.119234,43.0953191 107.709702,42.432 106.876851,42.432 C106.199489,42.432 105.818553,42.9260426 105.818553,43.4765106 C105.818553,44.2105532 106.368766,44.4786383 107.060426,44.7750638 L107.314468,44.8738723 C108.246128,45.2550638 109.107319,45.7348085 109.107319,46.8781277 C109.121106,48.0495319 108.076851,48.8966809 106.679489,48.8966809 C105.77617,48.8966809 105.098809,48.5578723 104.844511,48.4026383 C104.759745,48.1766809 104.618809,47.3440851 104.505702,46.6381277 L104.915234,46.5676596 C105.169277,47.3578723 105.790213,48.444766 106.863064,48.444766 C107.554723,48.444766 108.020426,47.9650213 108.020426,47.3157447 C108.020426,46.5393191 107.427574,46.2291064 106.876851,45.9888511 L106.566638,45.8476596 C105.790213,45.5231489 104.788085,45.0150638 104.788085,43.9422128 C104.788085,42.7991489 105.677362,41.9803404 107.117106,41.9803404 C107.766383,41.9803404 108.288511,42.1779574 108.542553,42.2486809 C108.627319,42.672 108.697787,43.194383 108.796596,43.8998298 L108.387319,43.9565106" id="Fill-15" fill="#FFFFFF"></path>
                    <path d="M110.194213,48.7131064 L110.194213,48.3321702 C111.097532,48.2614468 111.182043,48.1907234 111.182043,47.1748085 L111.182043,43.7024681 C111.182043,42.672 111.097532,42.629617 110.194213,42.5588936 L110.194213,42.1639149 L113.341532,42.1639149 L113.341532,42.5451064 C112.42417,42.629617 112.325362,42.672 112.325362,43.7165106 L112.325362,47.1748085 C112.325362,48.1907234 112.409872,48.2614468 113.341532,48.3321702 L113.341532,48.7131064 L110.194213,48.7131064" id="Fill-16" fill="#FFFFFF"></path>
                    <path d="M120.920936,46.8217021 C120.808085,47.3157447 120.54,48.2331064 120.342383,48.6002553 C120.06,48.6850213 119.015489,48.8966809 118.310043,48.8966809 C115.741021,48.8966809 114.526979,47.2593191 114.526979,45.5091064 C114.526979,43.3917447 116.277447,41.9803404 118.535489,41.9803404 C119.425021,41.9803404 120.158809,42.1779574 120.54,42.2627234 C120.610468,42.827234 120.652851,43.3493617 120.723574,44.0129362 L120.32834,44.0834043 C120.045702,42.869617 119.325957,42.432 118.295745,42.432 C116.870043,42.432 115.853872,43.6457872 115.853872,45.3395745 C115.853872,47.1748085 116.997191,48.4309787 118.35217,48.4309787 C119.36834,48.4309787 120.003574,47.8662128 120.525702,46.7371915 L120.920936,46.8217021" id="Fill-17" fill="#FFFFFF"></path>
                    <path d="M125.098723,43.547234 L125.070638,43.547234 L124.139234,46.0171915 L126.030383,46.0171915 L125.098723,43.547234 L125.098723,43.547234 Z M126.072766,48.7131064 L126.072766,48.3321702 L126.326809,48.3035745 C126.750128,48.2474043 126.834894,48.1342979 126.651574,47.6262128 L126.242043,46.5676596 L123.941362,46.5676596 C123.828511,46.8500426 123.71566,47.1885957 123.602553,47.5697872 C123.433277,48.1202553 123.574468,48.2331064 123.983745,48.2897872 L124.322553,48.3321702 L124.322553,48.7131064 L121.76783,48.7131064 L121.76783,48.3321702 C122.417106,48.2614468 122.685191,48.1626383 123.108766,47.1324255 L125.183745,42.0651064 L125.621106,41.9662979 L127.794638,47.3721702 C128.119404,48.2050213 128.387489,48.2897872 129.022723,48.3321702 L129.022723,48.7131064 L126.072766,48.7131064 L126.072766,48.7131064 Z" id="Fill-18" fill="#FFFFFF"></path>
                    <path d="M135.57166,46.8781277 C135.501191,47.3017021 135.289532,48.4026383 135.190468,48.7131064 L129.911745,48.7131064 L129.911745,48.3321702 C130.899574,48.2614468 130.970298,48.1907234 130.970298,47.1748085 L130.970298,43.6741277 C130.970298,42.6579574 130.885787,42.6155745 129.96817,42.5451064 L129.96817,42.1639149 L133.17217,42.1639149 L133.17217,42.5451064 C132.212426,42.6155745 132.113617,42.6579574 132.113617,43.6741277 L132.113617,47.3157447 C132.113617,47.8097872 132.184085,48.0638298 132.381702,48.1626383 C132.579319,48.2474043 132.93217,48.2754894 133.41217,48.2754894 C134.047149,48.2614468 134.428596,48.1766809 134.654043,47.9085957 C134.851915,47.6828936 134.992851,47.3721702 135.176426,46.8357447 L135.57166,46.8781277" id="Fill-19" fill="#FFFFFF"></path>
                    <path d="M146.086723,46.8217021 C145.973617,47.3157447 145.705532,48.2331064 145.507915,48.6002553 C145.225787,48.6850213 144.181277,48.8966809 143.475574,48.8966809 C140.906809,48.8966809 139.692766,47.2593191 139.692766,45.5091064 C139.692766,43.3917447 141.442979,41.9803404 143.701277,41.9803404 C144.590553,41.9803404 145.32434,42.1779574 145.705532,42.2627234 C145.776255,42.827234 145.818638,43.3493617 145.889106,44.0129362 L145.493872,44.0834043 C145.211489,42.869617 144.491745,42.432 143.461277,42.432 C142.035574,42.432 141.019404,43.6457872 141.019404,45.3395745 C141.019404,47.1748085 142.162979,48.4309787 143.517702,48.4309787 C144.534128,48.4309787 145.169362,47.8662128 145.691489,46.7371915 L146.086723,46.8217021" id="Fill-20" fill="#FFFFFF"></path>
                    <path d="M151.633277,48.7131064 L151.633277,48.3321702 C152.536596,48.2474043 152.621362,48.1766809 152.621362,47.1605106 L152.621362,45.5231489 L149.304511,45.5231489 L149.304511,47.1605106 C149.304511,48.1907234 149.389021,48.2614468 150.249957,48.3321702 L150.249957,48.7131064 L147.159064,48.7131064 L147.159064,48.3321702 C148.076681,48.2614468 148.161191,48.1907234 148.161191,47.1605106 L148.161191,43.7305532 C148.161191,42.6862979 148.076681,42.629617 147.130979,42.5451064 L147.130979,42.1639149 L150.264255,42.1639149 L150.264255,42.5451064 C149.403319,42.629617 149.304511,42.672 149.304511,43.7305532 L149.304511,44.9729362 L152.621362,44.9729362 L152.621362,43.7305532 C152.621362,42.6862979 152.536596,42.629617 151.661617,42.5451064 L151.661617,42.1639149 L154.752766,42.1639149 L154.752766,42.5308085 C153.849447,42.629617 153.764681,42.6862979 153.764681,43.7305532 L153.764681,47.1605106 C153.764681,48.1766809 153.849447,48.2474043 154.752766,48.3321702 L154.752766,48.7131064 L151.633277,48.7131064" id="Fill-21" fill="#FFFFFF"></path>
                    <path d="M158.620085,45.4524255 C159.015064,45.4524255 159.354128,45.3962553 159.650553,45.2267234 C160.017447,45.0010213 160.201021,44.5353191 160.201021,44.0410213 C160.201021,43.0108085 159.509362,42.6015319 158.690553,42.6015319 C158.097957,42.6015319 158.041277,42.7286809 158.041277,43.152 L158.041277,45.4524255 L158.620085,45.4524255 L158.620085,45.4524255 Z M162.544085,48.7978723 L162.219319,48.7978723 C161.090043,48.7978723 160.638638,48.4871489 160.215064,47.8802553 C159.890298,47.4288511 159.509362,46.7652766 159.311745,46.4124255 C159.057447,45.9888511 158.902468,45.8900426 158.365787,45.8900426 L158.041277,45.8900426 L158.041277,47.2028936 C158.041277,48.1766809 158.126043,48.2614468 159.057447,48.3321702 L159.057447,48.7131064 L155.909872,48.7131064 L155.909872,48.3321702 C156.841787,48.2614468 156.926298,48.1907234 156.926298,47.2028936 L156.926298,43.6881702 C156.926298,42.6579574 156.841787,42.6155745 155.952255,42.5451064 L155.952255,42.1639149 L159.071745,42.1639149 C159.777447,42.1639149 160.29983,42.2486809 160.723149,42.5165106 C161.132426,42.756766 161.442894,43.2224681 161.442894,43.8574468 C161.442894,44.7750638 160.77983,45.2974468 160.101957,45.551234 C160.257447,45.8338723 160.709106,46.5676596 161.033872,47.0193191 C161.386468,47.5274043 161.570043,47.7533617 161.810043,48.0074043 C162.049787,48.2614468 162.332426,48.3885957 162.586468,48.4733617 L162.544085,48.7978723 L162.544085,48.7978723 Z" id="Fill-22" fill="#FFFFFF"></path>
                    <path d="M163.221447,48.7131064 L163.221447,48.3321702 C164.124766,48.2614468 164.209277,48.1907234 164.209277,47.1748085 L164.209277,43.7024681 C164.209277,42.672 164.124766,42.629617 163.221447,42.5588936 L163.221447,42.1639149 L166.368766,42.1639149 L166.368766,42.5451064 C165.451404,42.629617 165.352851,42.672 165.352851,43.7165106 L165.352851,47.1748085 C165.352851,48.1907234 165.437362,48.2614468 166.368766,48.3321702 L166.368766,48.7131064 L163.221447,48.7131064" id="Fill-23" fill="#FFFFFF"></path>
                    <path d="M171.407745,43.9565106 C171.13966,43.0953191 170.730128,42.432 169.897277,42.432 C169.219915,42.432 168.838979,42.9260426 168.838979,43.4765106 C168.838979,44.2105532 169.389191,44.4786383 170.080851,44.7750638 L170.334894,44.8738723 C171.266553,45.2550638 172.127745,45.7348085 172.127745,46.8781277 C172.141532,48.0495319 171.097277,48.8966809 169.699915,48.8966809 C168.796596,48.8966809 168.119234,48.5578723 167.864936,48.4026383 C167.78017,48.1766809 167.639234,47.3440851 167.526128,46.6381277 L167.93566,46.5676596 C168.189702,47.3578723 168.810638,48.444766 169.883489,48.444766 C170.575149,48.444766 171.040851,47.9650213 171.040851,47.3157447 C171.040851,46.5393191 170.448,46.2291064 169.897277,45.9888511 L169.587064,45.8476596 C168.810638,45.5231489 167.808511,45.0150638 167.808511,43.9422128 C167.808511,42.7991489 168.697787,41.9803404 170.137532,41.9803404 C170.786809,41.9803404 171.308936,42.1779574 171.562979,42.2486809 C171.647745,42.672 171.718213,43.194383 171.817021,43.8998298 L171.407745,43.9565106" id="Fill-24" fill="#FFFFFF"></path>
                    <path d="M178.930723,43.9705532 C178.817872,43.4200851 178.690979,43.109617 178.56383,42.9403404 C178.380255,42.7000851 178.084085,42.6155745 177.448851,42.6155745 L176.82766,42.6155745 L176.82766,47.1462128 C176.82766,48.1907234 176.912426,48.2474043 177.942894,48.3178723 L177.942894,48.7131064 L174.611745,48.7131064 L174.611745,48.3178723 C175.585787,48.2474043 175.670298,48.1766809 175.670298,47.1605106 L175.670298,42.6155745 L175.232936,42.6155745 C174.357702,42.6155745 174.146043,42.7286809 173.962468,42.9827234 C173.821532,43.1800851 173.722468,43.4484255 173.609617,43.9705532 L173.214383,43.9705532 C173.256766,43.152 173.327234,42.432 173.341532,41.9239149 L173.637957,41.9239149 C173.792936,42.1355745 173.920085,42.1639149 174.18817,42.1639149 L178.394553,42.1639149 C178.676681,42.1639149 178.761447,42.1074894 178.916936,41.9239149 L179.213106,41.9239149 C179.213106,42.347234 179.283574,43.3212766 179.340255,43.9422128 L178.930723,43.9705532" id="Fill-25" fill="#FFFFFF"></path>
                    <path d="M180.440936,48.7131064 L180.440936,48.3321702 C181.344255,48.2614468 181.428766,48.1907234 181.428766,47.1748085 L181.428766,43.7024681 C181.428766,42.672 181.344255,42.629617 180.440936,42.5588936 L180.440936,42.1639149 L183.588511,42.1639149 L183.588511,42.5451064 C182.671149,42.629617 182.57234,42.672 182.57234,43.7165106 L182.57234,47.1748085 C182.57234,48.1907234 182.656851,48.2614468 183.588511,48.3321702 L183.588511,48.7131064 L180.440936,48.7131064" id="Fill-26" fill="#FFFFFF"></path>
                    <path d="M187.597277,43.547234 L187.568936,43.547234 L186.637532,46.0171915 L188.528681,46.0171915 L187.597277,43.547234 L187.597277,43.547234 Z M188.571064,48.7131064 L188.571064,48.3321702 L188.825106,48.3035745 C189.248426,48.2474043 189.333191,48.1342979 189.149872,47.6262128 L188.74034,46.5676596 L186.43966,46.5676596 C186.326809,46.8500426 186.213957,47.1885957 186.100851,47.5697872 C185.931574,48.1202553 186.072766,48.2331064 186.482043,48.2897872 L186.821106,48.3321702 L186.821106,48.7131064 L184.266128,48.7131064 L184.266128,48.3321702 C184.915404,48.2614468 185.183745,48.1626383 185.607064,47.1324255 L187.682043,42.0651064 L188.11966,41.9662979 L190.292936,47.3721702 C190.617702,48.2050213 190.886043,48.2897872 191.521021,48.3321702 L191.521021,48.7131064 L188.571064,48.7131064 L188.571064,48.7131064 Z" id="Fill-27" fill="#FFFFFF"></path>
                    <path d="M199.778043,42.5451064 C199.10017,42.6015319 198.846128,42.714383 198.804,43.1660426 C198.761617,43.5329362 198.719234,43.9986383 198.719234,44.9729362 L198.719234,48.7835745 L198.253532,48.7835745 L194.004766,43.6600851 L193.990979,43.6741277 L193.990979,45.8900426 C193.990979,46.8640851 194.019064,47.3864681 194.075489,47.7109787 C194.117872,48.1485957 194.386213,48.2754894 195.162383,48.3321702 L195.162383,48.7131064 L192.410043,48.7131064 L192.410043,48.3321702 C193.059319,48.2754894 193.313362,48.1485957 193.369787,47.7250213 C193.41217,47.3864681 193.454553,46.8640851 193.454553,45.8900426 L193.454553,43.9986383 C193.454553,42.827234 193.228596,42.6155745 192.254809,42.5451064 L192.254809,42.1639149 L194.174298,42.1639149 L198.168766,46.7795745 L198.196851,46.7795745 L198.196851,44.9729362 C198.196851,43.9986383 198.168766,43.5329362 198.126383,43.1800851 C198.069957,42.714383 197.844,42.6015319 197.039489,42.5451064 L197.039489,42.1639149 L199.778043,42.1639149 L199.778043,42.5451064" id="Fill-28" fill="#FFFFFF"></path>
                    <path d="M207.738128,43.9565106 C207.470043,43.0953191 207.060511,42.432 206.22766,42.432 C205.550298,42.432 205.169362,42.9260426 205.169362,43.4765106 C205.169362,44.2105532 205.719574,44.4786383 206.411234,44.7750638 L206.665277,44.8738723 C207.596936,45.2550638 208.458128,45.7348085 208.458128,46.8781277 C208.471915,48.0495319 207.42766,48.8966809 206.030298,48.8966809 C205.126979,48.8966809 204.449617,48.5578723 204.195319,48.4026383 C204.110553,48.1766809 203.969617,47.3440851 203.856511,46.6381277 L204.266043,46.5676596 C204.520085,47.3578723 205.141021,48.444766 206.213872,48.444766 C206.905532,48.444766 207.371234,47.9650213 207.371234,47.3157447 C207.371234,46.5393191 206.778383,46.2291064 206.22766,45.9888511 L205.917447,45.8476596 C205.141021,45.5231489 204.138894,45.0150638 204.138894,43.9422128 C204.138894,42.7991489 205.02817,41.9803404 206.467915,41.9803404 C207.117191,41.9803404 207.639319,42.1779574 207.893362,42.2486809 C207.978128,42.672 208.048596,43.194383 208.147404,43.8998298 L207.738128,43.9565106" id="Fill-29" fill="#FFFFFF"></path>
                    <path d="M216.037277,46.8217021 C215.924426,47.3157447 215.65634,48.2331064 215.458723,48.6002553 C215.17634,48.6850213 214.13183,48.8966809 213.426383,48.8966809 C210.857362,48.8966809 209.643319,47.2593191 209.643319,45.5091064 C209.643319,43.3917447 211.393787,41.9803404 213.652085,41.9803404 C214.541362,41.9803404 215.275149,42.1779574 215.65634,42.2627234 C215.726809,42.827234 215.769191,43.3493617 215.839915,44.0129362 L215.444681,44.0834043 C215.162298,42.869617 214.442298,42.432 213.412085,42.432 C211.986383,42.432 210.970213,43.6457872 210.970213,45.3395745 C210.970213,47.1748085 212.113532,48.4309787 213.468511,48.4309787 C214.484681,48.4309787 215.12017,47.8662128 215.642043,46.7371915 L216.037277,46.8217021" id="Fill-30" fill="#FFFFFF"></path>
                    <path d="M221.584085,48.7131064 L221.584085,48.3321702 C222.487404,48.2474043 222.57217,48.1766809 222.57217,47.1605106 L222.57217,45.5231489 L219.255319,45.5231489 L219.255319,47.1605106 C219.255319,48.1907234 219.33983,48.2614468 220.200766,48.3321702 L220.200766,48.7131064 L217.109617,48.7131064 L217.109617,48.3321702 C218.027234,48.2614468 218.111745,48.1907234 218.111745,47.1605106 L218.111745,43.7305532 C218.111745,42.6862979 218.027234,42.629617 217.081532,42.5451064 L217.081532,42.1639149 L220.215064,42.1639149 L220.215064,42.5451064 C219.354128,42.629617 219.255319,42.672 219.255319,43.7305532 L219.255319,44.9729362 L222.57217,44.9729362 L222.57217,43.7305532 C222.57217,42.6862979 222.487404,42.629617 221.61217,42.5451064 L221.61217,42.1639149 L224.703574,42.1639149 L224.703574,42.5308085 C223.800255,42.629617 223.715489,42.6862979 223.715489,43.7305532 L223.715489,47.1605106 C223.715489,48.1766809 223.800255,48.2474043 224.703574,48.3321702 L224.703574,48.7131064 L221.584085,48.7131064" id="Fill-31" fill="#FFFFFF"></path>
                    <path d="M227.215915,45.240766 C227.215915,47.1181277 228.189702,48.4590638 229.573021,48.4590638 C230.631319,48.4590638 231.605362,47.6828936 231.605362,45.636 C231.605362,44.0410213 230.758723,42.432 229.304681,42.432 C228.217787,42.432 227.215915,43.3779574 227.215915,45.240766 L227.215915,45.240766 Z M232.932255,45.3679149 C232.932255,47.6969362 231.13966,48.8966809 229.43183,48.8966809 C227.173532,48.8966809 225.889021,47.2309787 225.889021,45.5655319 C225.889021,43.067234 227.879234,41.9803404 229.417787,41.9803404 C231.492766,41.9803404 232.932255,43.4484255 232.932255,45.3679149 L232.932255,45.3679149 Z" id="Fill-32" fill="#FFFFFF"></path>
                    <path d="M235.726723,45.240766 C235.726723,47.1181277 236.700766,48.4590638 238.084085,48.4590638 C239.142383,48.4590638 240.116426,47.6828936 240.116426,45.636 C240.116426,44.0410213 239.269532,42.432 237.815745,42.432 C236.728851,42.432 235.726723,43.3779574 235.726723,45.240766 L235.726723,45.240766 Z M241.443319,45.3679149 C241.443319,47.6969362 239.650723,48.8966809 237.942894,48.8966809 C235.68434,48.8966809 234.400085,47.2309787 234.400085,45.5655319 C234.400085,43.067234 236.390298,41.9803404 237.928851,41.9803404 C240.003574,41.9803404 241.443319,43.4484255 241.443319,45.3679149 L241.443319,45.3679149 Z" id="Fill-33" fill="#FFFFFF"></path>
                    <path d="M248.17583,46.8781277 C248.105362,47.3017021 247.893702,48.4026383 247.794638,48.7131064 L242.515915,48.7131064 L242.515915,48.3321702 C243.503745,48.2614468 243.574468,48.1907234 243.574468,47.1748085 L243.574468,43.6741277 C243.574468,42.6579574 243.489957,42.6155745 242.57234,42.5451064 L242.57234,42.1639149 L245.77634,42.1639149 L245.77634,42.5451064 C244.816596,42.6155745 244.717787,42.6579574 244.717787,43.6741277 L244.717787,47.3157447 C244.717787,47.8097872 244.788511,48.0638298 244.985872,48.1626383 C245.183745,48.2474043 245.53634,48.2754894 246.01634,48.2754894 C246.651574,48.2614468 247.032766,48.1766809 247.258468,47.9085957 C247.456085,47.6828936 247.597277,47.3721702 247.780596,46.8357447 L248.17583,46.8781277" id="Fill-34" fill="#FFFFFF"></path>
                    <path d="M28.1910638,21.4968511 L22.2255319,21.4968511 L20.0234043,17.9711489 L28.7629787,17.9711489 L28.7507234,10.3902128 L28.4226383,10.3902128 L28.403234,9.36638298 L31.8658723,9.36791489 L31.8658723,10.3902128 L31.5329362,10.3902128 L31.5329362,17.9711489 L40.5107234,17.9711489 L38.3083404,21.4968511 L32.1081702,21.4968511 L32.1081702,37.4652766 C34.7555745,37.4928511 37.4022128,37.5750638 40.0462979,37.7142128 C40.7851915,36.6142979 41.4880851,35.4579574 42.1455319,34.2528511 C43.9210213,30.9972766 45.3137872,27.5119149 46.2852766,23.8935319 C47.2715745,20.2202553 47.7982979,16.4902979 47.8534468,12.7960851 L30.2688511,4.71906383 L12.4657021,12.7988936 C12.5274894,16.4466383 13.1085957,20.1681702 14.1954894,23.8708085 C15.2415319,27.4348085 16.7341277,30.9214468 18.6321702,34.2342128 C19.3146383,35.4255319 20.0448511,36.5800851 20.8092766,37.6858723 C23.2682553,37.5640851 25.7295319,37.4905532 28.1910638,37.4650213 L28.1910638,21.4968511" id="Fill-35" fill="#FFFFFF"></path>
                    <path d="M11.4474894,12.1488511 L30.2714043,3.60587234 L48.8708936,12.1488511 C48.8708936,21.8262128 45.6939574,30.9104681 41.2182128,37.7795745 C42.1276596,37.8331915 43.0365957,37.8934468 43.9450213,37.9600851 C48.5693617,30.2489362 51.7621277,20.4211915 51.7621277,9.99753191 L30.2885106,0.134553191 L8.55625532,9.99753191 C8.55625532,20.4020426 12.1360851,30.2126809 16.9388936,37.9174468 C17.8335319,37.8546383 18.7286809,37.7984681 19.6243404,37.7484255 C15.0114894,30.8828936 11.4474894,21.8114043 11.4474894,12.1488511" id="Fill-36" fill="#FFFFFF"></path>
                    <path d="M30.2775319,48.5417872 C29.9371915,48.3403404 29.592766,48.1205106 29.2455319,47.8861277 C27.8417872,47.8935319 26.4377872,47.9177872 25.0330213,47.9591489 C26.8141277,49.6373617 28.596,51.0076596 30.2959149,52.0131064 C32.1806809,51.0114894 34.0702979,49.6478298 35.9045106,47.9780426 C34.4060426,47.9285106 32.9085957,47.8986383 31.4116596,47.8876596 C31.0337872,48.1215319 30.6554043,48.3408511 30.2775319,48.5417872" id="Fill-37" fill="#FFFFFF"></path>
                    <path d="M44.3313191,41.9803404 C44.2205106,41.9706383 44.1653617,41.9660426 44.0548085,41.9565957 C44.0277447,42.2765106 44.0139574,42.4365957 43.9868936,42.756766 C44.1288511,42.7685106 44.1995745,42.7746383 44.3412766,42.7868936 C44.6024681,42.809617 44.778383,42.6819574 44.8018723,42.42 C44.8240851,42.1718298 44.7436596,42.0158298 44.3313191,41.9803404" id="Fill-38" fill="#FFFFFF"></path>
                    <path d="M40.9230638,41.7130213 C40.4211064,41.6803404 39.9931915,42.0617872 39.9610213,42.600766 C39.9275745,43.1624681 40.3013617,43.6097872 40.7974468,43.6419574 C41.2935319,43.674383 41.7219574,43.2794043 41.7617872,42.7179574 C41.7998298,42.1794894 41.4252766,41.7457021 40.9230638,41.7130213" id="Fill-39" fill="#FFFFFF"></path>
                    <path d="M29.7689362,41.3685957 C29.2659574,41.3701277 28.8653617,41.7801702 28.8702128,42.3196596 C28.8753191,42.8826383 29.2784681,43.3031489 29.7753191,43.301617 C30.2721702,43.2998298 30.6725106,42.876766 30.6737872,42.3137872 C30.6750638,41.7740426 30.2716596,41.3668085 29.7689362,41.3685957" id="Fill-40" fill="#FFFFFF"></path>
                    <path d="M23.136,41.5345532 C23.0006809,41.5404255 22.9330213,41.5434894 22.7979574,41.5498723 C22.8331915,42.3148085 22.8508085,42.6972766 22.8860426,43.4624681 C23.0195745,43.4560851 23.0864681,43.4532766 23.22,43.4474043 C23.7817021,43.4226383 24.1123404,43.0782128 24.0880851,42.4465532 C24.0640851,41.8194894 23.6900426,41.5100426 23.136,41.5345532" id="Fill-41" fill="#FFFFFF"></path>
                    <path d="M49.6011064,45.1468085 C49.553617,44.8621277 49.529617,44.7199149 49.4811064,44.435234 C49.0690213,44.3859574 48.8629787,44.3619574 48.4508936,44.315234 C48.3400851,44.5812766 48.2849362,44.7142979 48.1748936,44.9805957 C47.8434894,44.9435745 47.6777872,44.9254468 47.3461277,44.8899574 C47.8365957,43.835234 48.3334468,42.7835745 48.8382128,41.7357447 C49.1836596,41.7750638 49.3565106,41.795234 49.7019574,41.8363404 C49.9514043,42.9725106 50.1942128,44.1099574 50.4288511,45.2491915 C50.0979574,45.2073191 49.9322553,45.1868936 49.6011064,45.1468085 L49.6011064,45.1468085 Z M46.9779574,44.8511489 C46.6557447,44.8174468 46.494383,44.8011064 46.1719149,44.7689362 C46.2806809,43.6746383 46.3891915,42.5805957 46.4982128,41.4862979 C46.8273191,41.5189787 46.9917447,41.5358298 47.3208511,41.5700426 C47.2064681,42.6638298 47.0923404,43.7573617 46.9779574,44.8511489 L46.9779574,44.8511489 Z M44.7988085,44.6384681 C44.604766,44.1745532 44.5067234,43.9424681 44.3093617,43.4788085 C44.1571915,43.4655319 44.0811064,43.4591489 43.9286809,43.4461277 C43.8911489,43.8893617 43.8725106,44.1109787 43.8349787,44.5542128 C43.5122553,44.5268936 43.3506383,44.513617 43.0279149,44.4880851 C43.1149787,43.3917447 43.2020426,42.2956596 43.2893617,41.1995745 C43.758383,41.2368511 43.992766,41.2562553 44.4615319,41.2968511 C44.8049362,41.3267234 44.9675745,41.364766 45.1085106,41.4329362 C45.4764255,41.6101277 45.6837447,41.9683404 45.6385532,42.4460426 C45.6053617,42.7950638 45.401617,43.1601702 45.0564255,43.295234 C45.0561702,43.2990638 45.0559149,43.3008511 45.0556596,43.3044255 C45.0556596,43.3044255 45.0965106,43.3685106 45.1628936,43.5135319 C45.3786383,43.9968511 45.485617,44.2386383 45.6975319,44.7224681 C45.3380426,44.688 45.1582979,44.6711489 44.7988085,44.6384681 L44.7988085,44.6384681 Z M42.605617,42.78 C42.5320851,43.7461277 41.7462128,44.4436596 40.7494468,44.3788085 C39.7524255,44.3137021 39.0638298,43.5199149 39.1164255,42.5525106 C39.1677447,41.6080851 39.9533617,40.9100426 40.9713191,40.9764255 C41.9895319,41.0428085 42.6773617,41.8368511 42.605617,42.78 L42.605617,42.78 Z M38.8322553,44.2097872 C37.9692766,44.1638298 37.5377872,44.1439149 36.6745532,44.1097021 C36.7179574,43.0108085 36.761617,41.9121702 36.8052766,40.8135319 C37.1354043,40.8265532 37.3005957,40.8334468 37.6307234,40.8482553 C37.5837447,41.8902128 37.5605106,42.4108085 37.5140426,43.4525106 C38.0560851,43.476766 38.3269787,43.4900426 38.868766,43.5186383 C38.8542128,43.7951489 38.8468085,43.9332766 38.8322553,44.2097872 L38.8322553,44.2097872 Z M36.0651064,44.0867234 C35.795234,44.0770213 35.6601702,44.0724255 35.3902979,44.0637447 C35.3913191,44.0269787 35.3920851,44.0085957 35.3931064,43.9715745 C35.3954043,43.902383 35.4020426,43.8334468 35.4020426,43.8334468 C35.3984681,43.8334468 35.3964255,43.8331915 35.3928511,43.8331915 C35.3928511,43.8331915 35.0650213,44.1084255 34.5153191,44.0938723 C33.6694468,44.0716596 32.9029787,43.4277447 32.9203404,42.3482553 C32.9356596,41.388766 33.6888511,40.6608511 34.7177872,40.6886809 C35.5812766,40.7119149 36,41.1666383 36,41.1666383 C35.8335319,41.4028085 35.7505532,41.5210213 35.5851064,41.7574468 C35.5851064,41.7574468 35.2519149,41.4418723 34.7775319,41.4288511 C34.0728511,41.4094468 33.7766809,41.8475745 33.7664681,42.3362553 C33.7529362,42.9635745 34.1813617,43.3462979 34.6968511,43.3603404 C35.0867234,43.3710638 35.3772766,43.1402553 35.3772766,43.1402553 C35.3805957,43.0388936 35.3821277,42.9880851 35.3851915,42.8867234 C35.1972766,42.8808511 35.1030638,42.8780426 34.9151489,42.8726809 C34.9228085,42.5977021 34.9268936,42.4603404 34.9345532,42.185617 C35.4135319,42.1991489 35.652766,42.2068085 36.1314894,42.2239149 C36.1049362,42.9691915 36.0914043,43.3417021 36.0651064,44.0867234 L36.0651064,44.0867234 Z M29.7778723,44.0397447 C28.7793191,44.0430638 28.0381277,43.2982979 28.0245957,42.329617 C28.0113191,41.3839149 28.7468936,40.6335319 29.7666383,40.6302128 C30.7861277,40.6268936 31.5265532,41.3721702 31.5194043,42.3178723 C31.5122553,43.2868085 30.7764255,44.0364255 29.7778723,44.0397447 L29.7778723,44.0397447 Z M25.5564255,44.0537872 C25.5237447,42.9546383 25.4913191,41.8557447 25.4588936,40.7565957 C26.3042553,40.7315745 26.7270638,40.721617 27.5726809,40.7075745 C27.5772766,40.9843404 27.5795745,41.1227234 27.5841702,41.3994894 C27.0709787,41.4081702 26.814383,41.4135319 26.3014468,41.4260426 C26.3073191,41.6657872 26.310383,41.7857872 26.3162553,42.0257872 C26.7242553,42.0155745 26.9285106,42.011234 27.336766,42.0038298 C27.341617,42.2805957 27.3441702,42.4189787 27.3492766,42.6957447 C26.9428085,42.7031489 26.7395745,42.7074894 26.3331064,42.7174468 C26.339234,42.9666383 26.3422979,43.0909787 26.3484255,43.3401702 C26.8815319,43.3268936 27.1480851,43.3215319 27.6809362,43.3128511 C27.6855319,43.589617 27.6878298,43.728 27.6924255,44.004766 C26.8378723,44.0188085 26.4107234,44.0285106 25.5564255,44.0537872 L25.5564255,44.0537872 Z M23.2828085,44.1372766 C22.8135319,44.1579574 22.5786383,44.1689362 22.1093617,44.1929362 L21.9408511,40.8985532 C22.4198298,40.8740426 22.6593191,40.8625532 23.1385532,40.841617 C24.1996596,40.7951489 24.8989787,41.3788085 24.9334468,42.4164255 C24.9676596,43.4537872 24.3227234,44.0915745 23.2828085,44.1372766 L23.2828085,44.1372766 Z M19.4680851,44.3499574 C19.3937872,43.2528511 19.3197447,42.1557447 19.2454468,41.0586383 C19.5753191,41.0361702 19.7402553,41.0254468 20.0698723,41.0050213 C20.1388085,42.102383 20.207234,43.1997447 20.2761702,44.2973617 C19.9529362,44.3175319 19.7913191,44.328 19.4680851,44.3499574 L19.4680851,44.3499574 Z M16.8707234,44.5468085 C16.7785532,43.451234 16.6866383,42.3554043 16.5947234,41.2595745 C16.9240851,41.232 17.0890213,41.2184681 17.418383,41.1924255 C17.5005957,42.2320851 17.5414468,42.7516596 17.6234043,43.7913191 C18.1646809,43.7484255 18.4353191,43.7282553 18.9765957,43.6902128 C18.996,43.9662128 19.0059574,44.1043404 19.0253617,44.3805957 C18.1631489,44.4413617 17.7321702,44.4745532 16.8707234,44.5468085 L16.8707234,44.5468085 Z M14.6037447,44.8092766 C13.6090213,44.9070638 12.7996596,44.2355745 12.6947234,43.2725106 C12.5920851,42.3321702 13.254383,41.5159149 14.2702979,41.4160851 C15.2862128,41.316 16.0945532,41.9877447 16.176766,42.9301277 C16.2610213,43.895234 15.5987234,44.711234 14.6037447,44.8092766 L14.6037447,44.8092766 Z M11.3964255,45.1572766 C10.6238298,45.2489362 10.1377021,44.8371064 10.1377021,44.8371064 C10.2765957,44.5723404 10.3462979,44.4398298 10.4864681,44.1753191 C10.4864681,44.1753191 10.902383,44.4676596 11.3180426,44.418383 C11.4845106,44.3987234 11.6571064,44.3134468 11.6341277,44.1165957 C11.5889362,43.7269787 10.097617,43.9215319 9.9707234,42.9145532 C9.8946383,42.3102128 10.3654468,41.8460426 11.0323404,41.7668936 C11.7554043,41.6813617 12.1542128,42.0140426 12.1542128,42.0140426 C12.0446809,42.2918298 11.9902979,42.4307234 11.8820426,42.7085106 C11.8820426,42.7085106 11.5123404,42.4580426 11.1102128,42.5057872 C10.9419574,42.5257021 10.764,42.6214468 10.7862128,42.804766 C10.8357447,43.2168511 12.3268085,42.9694468 12.4422128,44.0057872 C12.5029787,44.5516596 12.1365957,45.0691915 11.3964255,45.1572766 L11.3964255,45.1572766 Z M60.3571915,45.5052766 C58.4068085,44.496 56.3565957,43.6999149 54.2428085,43.1269787 C54.2989787,42.732 54.3551489,42.336766 54.4113191,41.9415319 C54.5846809,40.7249362 53.7214468,39.6051064 52.5012766,39.4588085 C37.5625532,37.6659574 22.7195745,37.6659574 7.78110638,39.4588085 C6.56093617,39.6051064 5.69770213,40.7249362 5.87106383,41.9415319 C5.92825532,42.3434043 5.98544681,42.7452766 6.0426383,43.1471489 C3.95412766,43.7182979 1.92817021,44.5074894 0,45.5052766 C1.82706383,46.2165957 3.52391489,47.0869787 5.07038298,48.0868085 C4.36902128,49.3891915 3.80680851,50.7145532 3.38119149,52.0394043 C5.57259574,50.9052766 8.73242553,50.123234 11.1671489,49.7221277 C11.088766,49.2459574 10.9784681,48.7700426 10.8500426,48.2938723 L10.8459574,48.2757447 C23.7697021,46.8681702 36.5854468,46.8709787 49.5094468,48.2836596 L49.5071489,48.2938723 C49.3787234,48.7700426 49.2686809,49.2459574 49.1900426,49.7221277 C51.624766,50.123234 54.7845957,50.9052766 56.9762553,52.0394043 C56.550383,50.7145532 55.9884255,49.3891915 55.2868085,48.0868085 C56.8332766,47.0869787 58.5301277,46.2165957 60.3571915,45.5052766 L60.3571915,45.5052766 Z" id="Fill-42" fill="#FFFFFF"></path>
                    <path d="M49.1874894,42.5328511 C49.1839149,42.5325957 49.1818723,42.5323404 49.1782979,42.5318298 C49.1782979,42.5318298 49.0618723,42.8805957 48.9773617,43.0797447 C48.8716596,43.3258723 48.8188085,43.4489362 48.713617,43.6950638 C48.9753191,43.7249362 49.1060426,43.7402553 49.3677447,43.7711489 C49.3238298,43.5076596 49.301617,43.3759149 49.2569362,43.1124255 C49.2206809,42.8989787 49.1874894,42.5328511 49.1874894,42.5328511" id="Fill-43" fill="#FFFFFF"></path>
                    <path d="M14.3425532,42.1506383 C13.841617,42.1999149 13.4811064,42.6457021 13.536766,43.1826383 C13.5949787,43.7425532 14.0364255,44.123234 14.5314894,44.0744681 C15.0265532,44.0257021 15.3855319,43.5666383 15.3337021,43.0059574 C15.2839149,42.4685106 14.8434894,42.1013617 14.3425532,42.1506383" id="Fill-44" fill="#FFFFFF"></path>
                    <path d="M6.7692766,30.7942979 L6.24740426,31.9141277 C6.12995745,32.1658723 5.91268085,32.4954894 5.68238298,32.8442553 C4.83395745,34.1295319 3.55225532,36.0722553 4.94323404,37.9588085 L5.13089362,38.2138723 L5.39259574,38.2457872 C5.62008511,38.273617 5.83429787,38.2600851 6.03395745,38.2064681 C6.1212766,38.1829787 6.20578723,38.1518298 6.28697872,38.1130213 C6.60280851,37.962383 6.87191489,37.6971064 7.08459574,37.3220426 C7.86382979,35.9489362 7.71753191,33.3934468 7.26995745,32.165617 L6.7692766,30.7942979" id="Fill-45" fill="#FFFFFF"></path>
                    <path d="M0.266553191,26.3724255 L0.27293617,27.7526809 C0.278042553,28.8773617 0.999319149,31.1913191 2.16229787,32.4048511 C2.75668085,33.0250213 3.40238298,33.2966809 4.02970213,33.1902128 L4.2773617,33.1480851 L4.37029787,32.8879149 C5.0052766,31.1093617 3.19659574,29.3987234 2.00042553,28.2668936 C1.68153191,27.9653617 1.38051064,27.6809362 1.19540426,27.4636596 L0.266553191,26.3724255" id="Fill-46" fill="#FFFFFF"></path>
                    <path d="M6.55097872,22.4259574 L5.79217021,23.3154894 C5.64229787,23.4906383 5.38697872,23.7068936 5.11608511,23.9356596 C4.0973617,24.7971064 2.55753191,26.099234 3.50808511,28.0557447 L3.64825532,28.344 L3.90868085,28.4466383 C4.26995745,28.5891064 4.61744681,28.6156596 4.93991489,28.5291064 C5.02570213,28.5058723 5.10970213,28.4747234 5.19191489,28.4356596 C5.35914894,28.3557447 5.51821277,28.2426383 5.66757447,28.0965957 C6.63804255,27.1442553 6.972,24.9714894 6.78382979,23.8325106 L6.55097872,22.4259574" id="Fill-47" fill="#FFFFFF"></path>
                    <path d="M1.07693617,18.0331915 L0.811148936,19.3141277 C0.634978723,20.1640851 0.863234043,22.0710638 1.63506383,23.2452766 C2.04331915,23.8664681 2.55574468,24.2264681 3.11617021,24.287234 L3.37761702,24.3153191 L3.52391489,24.0988085 C4.36519149,22.8528511 3.13480851,21.1580426 2.32059574,20.0369362 C2.11429787,19.7530213 1.92,19.4849362 1.80970213,19.2954894 L1.07693617,18.0331915" id="Fill-48" fill="#FFFFFF"></path>
                    <path d="M6.61634043,15.371234 L5.69591489,16.0424681 C5.53965957,16.1563404 5.28051064,16.284766 5.00655319,16.4208511 C3.94902128,16.9457872 2.35148936,17.7385532 2.94561702,19.6164255 L3.0413617,19.92 L3.29004255,20.0747234 C3.72,20.3425532 4.15659574,20.4209362 4.57404255,20.3088511 C4.66391489,20.2848511 4.75276596,20.2516596 4.84059574,20.2097872 C4.88782979,20.1870638 4.93506383,20.1620426 4.98178723,20.1342128 C6.00740426,19.524 6.62961702,17.7533617 6.62425532,16.752766 L6.61634043,15.371234" id="Fill-49" fill="#FFFFFF"></path>
                    <g id="Group-53" transform="translate(2.553191, 10.212766)">
                        <mask id="mask-2" fill="white">
                            <use xlink:href="#path-1"></use>
                        </mask>
                        <g id="Clip-51"></g>
                        <path d="M2.00119149,0.218553191 L1.46834043,0.601276596 C0.837191489,1.0547234 -0.029106383,2.67982979 0.104170213,4.09582979 C0.185361702,4.95753191 0.595914894,5.46153191 0.925787234,5.73242553 L1.10093617,5.87591489 L1.29344681,5.87693617 C1.37617021,5.87744681 1.46731915,5.86851064 1.56255319,5.84297872 C1.61668085,5.82842553 1.67208511,5.80825532 1.728,5.78170213 C1.94629787,5.67753191 2.16970213,5.47148936 2.34561702,5.08595745 C2.83455319,4.01310638 2.73548936,1.97182979 2.32723404,0.997021277 L2.00119149,0.218553191" id="Fill-50" fill="#FFFFFF" mask="url(#mask-2)"></path>
                        <path d="M21.9891064,46.6322553 C21.5989787,46.8786383 21.2297872,47.1528511 20.8899574,47.4048511 C20.6088511,47.6134468 20.339234,47.8133617 20.1043404,47.9617021 C20.0185532,48.0158298 19.9373617,48.0630638 19.8620426,48.1013617 L19.0062128,48.534383 L20.016,49.0917447 C21.1245957,49.7037447 23.3422979,50.0828936 24.8208511,49.4913191 C24.9837447,49.4262128 25.1382128,49.3488511 25.2804255,49.2589787 L25.2827234,49.2577021 C25.9771915,48.8193191 26.315234,48.1159149 26.2608511,47.2233191 L26.2455319,46.9718298 L26.0611915,46.7775319 C24.6970213,45.3434043 23.237617,45.8440851 21.9891064,46.6322553" id="Fill-52" fill="#FFFFFF" mask="url(#mask-2)"></path>
                    </g>
                    <path d="M19.2513191,50.2475745 L20.0908085,51.1388936 C20.3553191,51.4202553 20.694383,51.863234 21.0533617,52.332766 C22.2880851,53.9481702 24.1381277,56.3688511 25.8653617,55.6777021 C25.9102979,55.6598298 25.9549787,55.6396596 25.9994043,55.6177021 L26.1875745,55.5242553 L26.208766,55.2827234 C26.2815319,54.4511489 25.9718298,53.5973617 25.3133617,52.812766 C23.9594043,51.2011915 21.4618723,50.2271489 20.2674894,50.2381277 L19.2513191,50.2475745" id="Fill-54" fill="#FFFFFF"></path>
                    <g id="Group-58" transform="translate(13.787234, 51.319149)">
                        <mask id="mask-4" fill="white">
                            <use xlink:href="#path-3"></use>
                        </mask>
                        <g id="Clip-56"></g>
                        <path d="M0.112851064,0.139914894 L0.89412766,1.09404255 C1.76885106,2.16178723 4.00774468,3.66025532 5.66655319,3.67506383 C5.96451064,3.67787234 6.23157447,3.63165957 6.46468085,3.53846809 C6.55634043,3.50170213 6.64289362,3.45778723 6.72382979,3.40646809 C6.99829787,3.2333617 7.21021277,2.97804255 7.35217021,2.64485106 L7.44,2.43829787 L7.33506383,2.19089362 C6.39114894,-0.0324255319 3.95106383,0.112340426 2.33693617,0.208085106 C1.8827234,0.235148936 1.45378723,0.260680851 1.1466383,0.233106383 L0.112851064,0.139914894" id="Fill-55" fill="#FFFFFF" mask="url(#mask-4)"></path>
                        <path d="M18.3834894,5.67114894 L18.1991489,5.86544681 L18.1838298,6.11693617 C18.1294468,7.00953191 18.4674894,7.71293617 19.1619574,8.15131915 L19.1642553,8.15259574 C19.3064681,8.24246809 19.4609362,8.31982979 19.6238298,8.38493617 C21.102383,8.97651064 23.3200851,8.5973617 24.4289362,7.9853617 L25.4384681,7.428 L24.5826383,6.99497872 C24.5073191,6.95668085 24.4261277,6.90944681 24.3403404,6.85531915 C24.1054468,6.70697872 23.8358298,6.50706383 23.5547234,6.29846809 C23.2148936,6.04646809 22.8457021,5.77225532 22.4555745,5.52587234 C21.2070638,4.73770213 19.7476596,4.23702128 18.3834894,5.67114894" id="Fill-57" fill="#FFFFFF" mask="url(#mask-4)"></path>
                    </g>
                    <path d="M40.517617,50.2381277 C39.323234,50.2271489 36.8257021,51.2011915 35.4717447,52.812766 C34.8132766,53.5973617 34.5035745,54.4511489 34.5763404,55.2827234 L34.5975319,55.5242553 L34.7857021,55.6177021 C34.8301277,55.6396596 34.8748085,55.6598298 34.9197447,55.6777021 C36.6469787,56.3688511 38.4970213,53.9481702 39.7317447,52.332766 C40.0907234,51.863234 40.4297872,51.4202553 40.6942979,51.1388936 L41.5337872,50.2475745 L40.517617,50.2381277" id="Fill-59" fill="#FFFFFF"></path>
                    <path d="M45.851234,51.5522553 C45.5440851,51.5798298 45.1151489,51.5542979 44.6609362,51.527234 C43.0468085,51.4314894 40.6067234,51.2867234 39.6628085,53.5100426 L39.5578723,53.7574468 L39.6457021,53.964 C39.7876596,54.2971915 39.9995745,54.5525106 40.2740426,54.725617 C40.3549787,54.7769362 40.4415319,54.8208511 40.5331915,54.857617 C40.7662979,54.9508085 41.0333617,54.9970213 41.3313191,54.9942128 C42.9901277,54.9794043 45.2290213,53.4809362 46.1037447,52.4131915 L46.8850213,51.4590638 L45.851234,51.5522553" id="Fill-60" fill="#FFFFFF"></path>
                    <path d="M52.9794894,32.165617 C52.5319149,33.3934468 52.385617,35.9489362 53.1648511,37.3220426 C53.3775319,37.6971064 53.6466383,37.962383 53.9624681,38.1130213 C54.0436596,38.1518298 54.1281702,38.1829787 54.2154894,38.2064681 C54.4151489,38.2600851 54.6293617,38.273617 54.8568511,38.2457872 L55.1185532,38.2138723 L55.3062128,37.9588085 C56.6971915,36.0722553 55.4154894,34.1295319 54.5670638,32.8442553 C54.336766,32.4954894 54.1194894,32.1658723 54.0020426,31.9141277 L53.4801702,30.7942979 L52.9794894,32.165617" id="Fill-61" fill="#FFFFFF"></path>
                    <path d="M59.9828936,26.3724255 L59.9765106,27.7526809 C59.9714043,28.8773617 59.2501277,31.1913191 58.0871489,32.4048511 C57.492766,33.0250213 56.8470638,33.2966809 56.2197447,33.1902128 L55.9720851,33.1480851 L55.8791489,32.8879149 C55.2441702,31.1093617 57.0528511,29.3987234 58.2492766,28.2668936 C58.5681702,27.9653617 58.8689362,27.6809362 59.0540426,27.4636596 L59.9828936,26.3724255" id="Fill-62" fill="#FFFFFF"></path>
                    <path d="M53.6984681,22.4259574 L54.4572766,23.3154894 C54.6071489,23.4906383 54.8624681,23.7068936 55.1333617,23.9356596 C56.1520851,24.7971064 57.6919149,26.099234 56.7413617,28.0557447 L56.6011915,28.344 L56.340766,28.4466383 C55.9794894,28.5891064 55.632,28.6156596 55.3095319,28.5291064 C55.2237447,28.5058723 55.1397447,28.4747234 55.0575319,28.4356596 C54.8902979,28.3557447 54.731234,28.2426383 54.5821277,28.0965957 C53.6114043,27.1442553 53.2774468,24.9714894 53.465617,23.8325106 L53.6984681,22.4259574" id="Fill-63" fill="#FFFFFF"></path>
                    <path d="M59.1725106,18.0331915 L59.4382979,19.3141277 C59.6144681,20.1640851 59.3862128,22.0710638 58.614383,23.2452766 C58.2061277,23.8664681 57.6937021,24.2264681 57.1332766,24.287234 L56.8718298,24.3153191 L56.7255319,24.0988085 C55.8842553,22.8528511 57.1146383,21.1580426 57.9288511,20.0369362 C58.1351489,19.7530213 58.3294468,19.4849362 58.4397447,19.2954894 L59.1725106,18.0331915" id="Fill-64" fill="#FFFFFF"></path>
                    <path d="M53.6331064,15.371234 L54.5535319,16.0424681 C54.7097872,16.1563404 54.9689362,16.284766 55.2428936,16.4208511 C56.3004255,16.9457872 57.8979574,17.7385532 57.3038298,19.6164255 L57.2080851,19.92 L56.9594043,20.0747234 C56.5294468,20.3425532 56.0928511,20.4209362 55.6754043,20.3088511 C55.5855319,20.2848511 55.4966809,20.2516596 55.4088511,20.2097872 C55.361617,20.1870638 55.314383,20.1620426 55.2676596,20.1342128 C54.2420426,19.524 53.6198298,17.7533617 53.6251915,16.752766 L53.6331064,15.371234" id="Fill-65" fill="#FFFFFF"></path>
                    <path d="M55.6950638,10.4313191 L56.2279149,10.8140426 C56.8590638,11.2674894 57.7253617,12.8925957 57.5920851,14.3085957 C57.5108936,15.1702979 57.1005957,15.6742979 56.7707234,15.9451915 L56.5953191,16.0886809 L56.4028085,16.0897021 C56.3200851,16.0902128 56.2286809,16.0812766 56.1337021,16.0557447 C56.0795745,16.0411915 56.0241702,16.0210213 55.9682553,15.9944681 C55.7499574,15.8902979 55.5265532,15.6842553 55.3506383,15.2987234 C54.8617021,14.2258723 54.960766,12.1845957 55.3690213,11.2097872 L55.6950638,10.4313191" id="Fill-66" fill="#FFFFFF"></path>
                </g>
            </g>
        </g>
    </g>
</svg>