<?xml version="1.0" encoding="UTF-8" standalone="no"?>
<svg width="16px" height="16px" viewBox="0 0 16 16" version="1.1" xmlns="http://www.w3.org/2000/svg" xmlns:xlink="http://www.w3.org/1999/xlink">
    <!-- Generator: Sketch 3.7.2 (28276) - http://www.bohemiancoding.com/sketch -->
    <title>profile</title>
    <desc>Created with Sketch.</desc>
    <defs></defs>
    <g id="Symbols" stroke="none" stroke-width="1" fill="none" fill-rule="evenodd" opacity="0.5">
        <g id="Header" transform="translate(-1092.000000, -16.000000)" fill="#FFFFFF">
            <g id="Group-3">
                <g id="parents-&amp;-students" transform="translate(1092.000000, 12.000000)">
                    <path d="M11.0706215,13.5627946 C12.8250082,14.2608639 14,15.5389539 14,17 C14,17.1277777 13.9910129,17.240774 13.9734372,17.3402713 C13.9906309,17.3904285 14,17.4441447 14,17.5 C14,17.7680664 13.7759869,18 13.4996527,18 L2.50034732,18 C2.22900057,18 2,17.7761424 2,17.5 C2,17.4450492 2.0094132,17.3916167 2.02676067,17.3413891 C2.00905452,17.2416205 2,17.1282565 2,17 C2,15.5386408 3.17549536,14.2603162 4.93050637,13.5623459 C5.66500294,14.4410213 6.76866411,15 8,15 C9.23365585,15 10.3368728,14.4412252 11.0706215,13.5627946 Z M11.9254415,11.7707456 C14.3577037,12.7999808 16,14.7561483 16,17 C16,17.2155136 15.98485,17.4072244 15.9553052,17.5773168 C15.9845816,17.713571 16,17.8549831 16,18 C16,19.1122704 15.1072288,20 14.0059397,20 L1.99406028,20 C0.894513756,20 0,19.1045695 0,18 C0,17.8542651 0.0153266288,17.712385 0.0444407518,17.5758514 C0.0150631486,17.4061235 0,17.214895 0,17 C0,14.7560985 1.64236921,12.799894 4.07472042,11.770677 C4.02569801,11.5205534 4,11.2620873 4,10.9976305 L4,8.00236948 C4,5.79182182 5.790861,4 8,4 C10.2046438,4 12,5.79192185 12,8.00236948 L12,10.9976305 C12,11.2621136 11.9743636,11.5206025 11.9254415,11.7707456 Z M8,6 C6.8954305,6 6,6.88655484 6,8.00591905 L6,10.9940809 C6,12.1019194 6.88772964,13 8,13 C9.1045695,13 10,12.1134452 10,10.9940809 L10,8.00591905 C10,6.89808055 9.11227036,6 8,6 Z" id="profile"></path>
                </g>
            </g>
        </g>
    </g>
</svg>