<?xml version="1.0" encoding="UTF-8" standalone="no"?>
<svg width="16px" height="16px" viewBox="0 0 16 16" version="1.1" xmlns="http://www.w3.org/2000/svg" xmlns:xlink="http://www.w3.org/1999/xlink">
    <!-- Generator: Sketch 3.7.2 (28276) - http://www.bohemiancoding.com/sketch -->
    <title>!</title>
    <desc>Created with Sketch.</desc>
    <defs></defs>
    <g id="Symbols" stroke="none" stroke-width="1" fill="none" fill-rule="evenodd">
        <g id="Header" transform="translate(-784.000000, -17.000000)" fill="#EEE0AD">
            <g id="Group-3">
                <g id="request-info" transform="translate(784.000000, 12.000000)">
                    <path d="M8,21 C12.4182782,21 16,17.4182782 16,13 C16,8.58172178 12.4182782,5 8,5 C3.58172178,5 0,8.58172178 0,13 C0,17.4182782 3.58172178,21 8,21 Z M8,19 C11.3137087,19 14,16.3137087 14,13 C14,9.68629134 11.3137087,7 8,7 C4.68629134,7 2,9.68629134 2,13 C2,16.3137087 4.68629134,19 8,19 Z M7,9 L7,14 L9,14 L9,9 L7,9 Z M7,15 L7,17 L9,17 L9,15 L7,15 Z" id="!" transform="translate(8.000000, 13.000000) scale(1, -1) translate(-8.000000, -13.000000) "></path>
                </g>
            </g>
        </g>
    </g>
</svg>